<svg version="1.1" id="Layer_1" xmlns="http://www.w3.org/2000/svg" xmlns:xlink="http://www.w3.org/1999/xlink" x="0px" y="0px"
	 width="100%" viewBox="0 0 768 640" enable-background="new 0 0 768 640" xml:space="preserve">
<path fill="#000000" opacity="1.000000" stroke="none" 
	d="
M468.942017,367.981262 
	C443.621582,382.605713 418.609161,397.033600 393.850403,411.315216 
	C391.287964,409.025574 391.860565,406.897369 391.859161,404.984467 
	C391.824097,357.491089 391.863159,309.997589 391.764648,262.504364 
	C391.756500,258.572876 392.923431,256.107666 396.464233,254.062637 
	C432.091675,233.485809 467.608185,212.717026 503.197418,192.073761 
	C510.482117,187.848312 517.939575,183.920670 525.131042,179.958420 
	C527.348999,182.058182 527.020020,184.138031 527.019409,186.098969 
	C527.005676,233.424484 526.915405,280.750153 527.039612,328.075287 
	C527.052185,332.864044 525.439697,335.644165 521.278625,337.975616 
	C503.842346,347.745270 486.577606,357.821075 468.942017,367.981262 
M427.674622,334.125122 
	C451.270905,320.457550 474.875031,306.803436 498.457275,293.111694 
	C503.470917,290.200806 504.166046,287.625183 501.938812,280.797333 
	C500.204437,280.673431 498.859741,281.740021 497.466766,282.543762 
	C471.974487,297.252899 446.492767,311.980438 421.015961,326.716431 
	C419.723022,327.464294 418.321320,328.144470 417.268707,329.164215 
	C414.473572,331.872040 414.478302,335.551025 416.261597,338.303375 
	C418.031158,341.034454 420.315063,337.953430 422.264130,337.178528 
	C423.947235,336.509338 425.460388,335.412689 427.674622,334.125122 
M473.963531,322.518433 
	C456.252289,332.747284 438.546814,342.986145 420.826508,353.199310 
	C414.919891,356.603577 414.094055,358.823334 416.317688,365.867584 
	C418.308472,366.271545 419.787872,365.026947 421.318298,364.140045 
	C447.071503,349.215851 472.814514,334.273956 498.536285,319.295624 
	C503.630341,316.329315 504.258636,313.796844 501.515320,307.331635 
	C492.146240,311.585724 483.468445,317.052155 473.963531,322.518433 
M440.309235,286.881165 
	C432.967316,291.144165 425.589294,295.346558 418.298401,299.695129 
	C414.525726,301.945282 414.495758,305.692169 416.153320,308.916321 
	C418.062408,312.629944 420.455780,309.343628 422.287720,308.304504 
	C438.214691,299.269958 454.060883,290.093170 469.945953,280.984619 
	C475.369995,277.874451 476.108795,275.327332 472.782440,268.105774 
	C462.121582,274.260681 451.526215,280.377808 440.309235,286.881165 
M447.886719,267.369537 
	C455.797607,262.764313 463.735291,258.204254 471.605286,253.530167 
	C474.501862,251.809860 476.012878,246.468506 474.142181,243.914963 
	C471.540955,240.364288 469.376160,243.886108 467.434479,244.973373 
	C453.785645,252.616226 440.241943,260.447235 426.683228,268.250366 
	C423.656128,269.992462 420.547119,271.653625 417.757843,273.730774 
	C414.790833,275.940216 414.535706,279.439728 416.143982,282.288147 
	C417.977081,285.534790 420.582550,283.009033 422.575897,281.890869 
	C430.844543,277.252625 439.025726,272.458557 447.886719,267.369537 
z"/>
<path fill="#000000" opacity="1.000000" stroke="none" 
	d="
M335.836182,246.000275 
	C335.834045,240.504135 336.035614,235.497177 335.770508,230.515060 
	C335.549286,226.357346 337.046051,223.862305 340.747131,221.736359 
	C375.249573,201.917892 409.635895,181.897415 444.075226,161.968903 
	C452.383484,157.161270 460.763489,152.477692 469.095276,147.745758 
	C473.388275,155.191208 471.887390,164.595306 465.569885,168.676178 
	C455.274994,175.326279 444.681610,181.442703 433.339386,186.294678 
	C427.643646,188.731201 421.518097,190.880829 417.366547,196.124924 
	C415.676392,198.259903 412.512848,197.104370 410.423523,198.509781 
	C397.246155,207.373672 382.421143,213.504364 369.570862,222.775589 
	C366.282257,225.148239 362.835571,226.279633 359.456757,227.920013 
	C353.586548,230.769958 351.010193,235.068420 351.031799,241.728256 
	C351.178619,287.026062 351.102448,332.324615 351.053528,377.622894 
	C351.050537,380.386169 351.645416,383.259796 350.359344,385.888153 
	C341.713318,385.436005 335.851868,379.499237 335.851196,371.405762 
	C335.847717,329.770569 335.842438,288.135376 335.836182,246.000275 
z"/>
<path fill="#000000" opacity="1.000000" stroke="none" 
	d="
M295.168823,311.000000 
	C295.168274,323.992065 295.200928,336.484314 295.148743,348.976166 
	C295.141510,350.710724 295.873596,352.919189 293.850037,353.960297 
	C292.104370,354.858429 290.838928,353.080658 289.359375,352.456757 
	C284.077881,350.229736 282.568756,346.451233 282.600891,340.670319 
	C282.862671,293.533691 282.814087,246.394897 282.675476,199.257294 
	C282.662109,194.713806 283.992310,192.003525 288.040070,189.686447 
	C329.079041,166.194504 370.003876,142.503250 410.978607,118.898933 
	C412.644348,117.939346 414.221649,116.555115 416.323883,116.703018 
	C419.523529,125.458672 417.845703,128.937927 411.064850,133.965790 
	C400.471069,141.820831 387.846558,146.051285 377.210449,153.566025 
	C364.456818,162.576843 349.543335,167.598175 336.828186,176.565140 
	C325.136292,184.810486 312.131989,190.811798 299.784393,197.937027 
	C296.050995,200.091400 295.126160,203.085632 295.135223,207.065216 
	C295.210846,240.211090 295.179443,273.357208 295.180023,306.503235 
	C295.180023,307.835480 295.176849,309.167755 295.168823,311.000000 
z"/>
<path fill="#000000" opacity="1.000000" stroke="none" 
	d="
M161.419739,488.986755 
	C160.037430,491.052216 161.445938,491.959290 162.459610,493.041809 
	C167.768127,498.711060 169.227173,505.325775 166.079712,512.369019 
	C163.003830,519.252014 157.230392,522.367615 149.626053,522.266296 
	C140.476837,522.144348 131.323578,522.140869 122.174683,522.270996 
	C118.349510,522.325378 116.821838,520.834717 116.846169,516.964661 
	C116.950775,500.327545 116.931084,483.689026 116.834938,467.051727 
	C116.812553,463.178436 118.458389,461.718689 122.247810,461.777740 
	C130.564651,461.907379 138.891022,461.605865 147.202713,461.848938 
	C162.759766,462.303955 169.759171,475.494507 161.419739,488.986755 
M134.981842,505.716492 
	C139.270035,505.671631 143.565002,505.752747 147.843231,505.522552 
	C149.660980,505.424744 151.650864,504.642822 151.567245,502.342773 
	C151.485397,500.092041 149.569550,499.406006 147.671967,499.354309 
	C143.385925,499.237549 139.094788,499.292267 134.805801,499.306396 
	C132.987259,499.312408 131.544495,499.864014 131.339844,501.995789 
	C131.139542,504.082367 131.636887,505.627106 134.981842,505.716492 
M135.867538,484.931824 
	C139.526154,484.885498 143.187805,484.911682 146.841934,484.758301 
	C148.369293,484.694183 150.012039,484.202606 149.853180,482.210388 
	C149.723816,480.588226 148.225143,480.164337 146.882721,480.081879 
	C142.906693,479.837677 138.923431,479.700928 134.941437,479.569153 
	C133.199066,479.511475 131.481049,479.648163 131.354721,481.993103 
	C131.213318,484.617523 133.017502,484.892548 135.867538,484.931824 
z"/>
<path fill="#000000" opacity="1.000000" stroke="none" 
	d="
M209.920563,461.118225 
	C213.437042,461.722961 216.632507,461.984650 219.603882,462.941956 
	C233.281967,467.348755 242.395798,480.899506 240.914551,494.306335 
	C239.181824,509.989288 227.911087,521.649719 213.097000,523.085693 
	C198.030884,524.546204 185.033569,515.868896 179.834198,502.227631 
	C173.464539,485.515991 184.975891,463.341858 205.545593,461.625519 
	C206.868027,461.515137 208.179657,461.275269 209.920563,461.118225 
M194.481842,486.103058 
	C191.674606,490.552948 191.971619,494.941406 194.981918,499.110016 
	C201.270721,507.818665 218.065491,507.656219 224.282349,498.885223 
	C228.427338,493.037292 226.715485,485.727417 220.287354,481.825653 
	C212.204636,476.919556 201.469910,478.471344 194.481842,486.103058 
z"/>
<path fill="#000000" opacity="1.000000" stroke="none" 
	d="
M289.925629,522.331421 
	C275.971985,524.842041 264.579071,521.061401 256.715210,509.653320 
	C249.130112,498.649689 249.015152,486.888092 256.110413,475.442902 
	C263.083038,464.195496 277.355804,458.836945 290.524994,462.173859 
	C303.884125,465.558929 312.769226,476.280884 314.026733,490.534210 
	C315.110168,502.814392 307.174072,515.424622 295.040588,520.629822 
	C293.520264,521.282043 291.912262,521.729858 289.925629,522.331421 
M274.653870,504.043671 
	C280.544708,506.375641 286.375488,506.163239 292.011475,503.334900 
	C296.446503,501.109283 299.482208,497.543274 299.612244,492.454590 
	C299.743011,487.340210 296.854706,483.761963 292.446198,481.340454 
	C287.335938,478.533539 281.869629,478.332764 276.487000,479.832916 
	C270.701477,481.445343 266.055023,485.021240 265.579041,491.403503 
	C265.140442,497.284180 268.598022,501.358551 274.653870,504.043671 
z"/>
<path fill="#000000" opacity="1.000000" stroke="none" 
	d="
M342.879761,483.362946 
	C348.013153,477.502625 353.056183,471.952423 357.707977,466.091705 
	C360.234161,462.908966 363.036774,461.312653 367.094055,461.751434 
	C371.168518,462.192108 375.356659,461.139282 379.322906,462.421814 
	C380.318970,464.877960 378.503754,465.966095 377.388947,467.282440 
	C371.905975,473.756622 366.522064,480.324005 360.804596,486.585907 
	C358.376099,489.245636 358.407928,491.132538 360.618317,493.813080 
	C366.652832,501.131195 372.491394,508.611603 378.358063,516.066711 
	C379.462372,517.469971 381.000702,518.648132 381.218750,520.613525 
	C375.782043,524.114136 366.555725,522.661987 362.714447,517.804993 
	C358.390900,512.338196 353.998474,506.925842 349.212708,500.962341 
	C344.503357,505.486877 339.314087,508.987244 340.487000,516.328369 
	C341.168243,520.592224 339.577332,522.371094 335.068481,522.299927 
	C326.968170,522.172119 326.756866,522.280029 326.744110,516.754028 
	C326.706024,500.271393 326.816406,483.787689 326.650757,467.306610 
	C326.609711,463.218384 327.970581,461.701843 332.122498,461.751526 
	C339.870483,461.844177 340.624908,462.054810 340.831940,467.281494 
	C341.003143,471.604218 340.809906,475.941650 340.995575,480.263214 
	C341.045197,481.418030 339.994141,483.520630 342.879761,483.362946 
z"/>
<path fill="#000000" opacity="1.000000" stroke="none" 
	d="
M450.767914,513.778320 
	C456.412567,497.889648 462.041992,482.401855 467.419830,466.827209 
	C468.624329,463.338989 470.274689,461.729004 474.153961,461.705902 
	C485.824799,461.636444 485.904999,461.460876 489.900909,472.427521 
	C495.313110,487.281067 500.548035,502.199158 505.945312,517.058228 
	C507.269806,520.704590 506.449188,522.395752 502.352448,522.272217 
	C497.498077,522.125854 492.086884,523.566895 490.264740,516.697449 
	C489.894012,515.299805 488.149353,515.267517 486.792847,515.264160 
	C480.798279,515.249451 474.802399,515.324646 468.809784,515.214050 
	C466.192871,515.165771 465.016846,516.465881 464.046082,518.707764 
	C462.682220,521.857544 451.675629,524.059937 449.522430,521.515869 
	C447.359253,518.960022 450.353210,516.640381 450.767914,513.778320 
M481.667755,491.805450 
	C480.325989,488.947479 480.383179,485.391113 477.245575,482.734863 
	C475.127472,487.646362 473.065857,492.037323 472.632385,496.994110 
	C481.610870,498.798187 483.071564,498.042053 481.667755,491.805450 
z"/>
<path fill="#000000" opacity="1.000000" stroke="none" 
	d="
M565.493896,500.226074 
	C562.813965,515.342163 551.713501,524.391113 537.834290,523.146362 
	C524.048523,521.909973 514.099060,510.358032 514.210938,495.645416 
	C514.284241,486.001953 514.579346,476.357635 514.479736,466.716766 
	C514.441284,462.997925 515.759216,461.457275 519.410278,461.772583 
	C520.567139,461.872498 521.749451,461.893494 522.902954,461.778687 
	C527.413879,461.329865 529.211487,463.285187 529.108032,467.831818 
	C528.907349,476.649689 528.980286,485.475891 529.062683,494.297485 
	C529.134644,501.998657 532.619507,505.949860 539.760010,505.563599 
	C548.922241,505.068024 551.462646,501.297272 551.082458,494.387543 
	C550.607727,485.757538 550.928955,477.081543 550.975342,468.425751 
	C551.008301,462.276062 551.489441,461.829559 557.434753,461.794708 
	C558.932556,461.785950 560.430725,461.841919 561.928589,461.837830 
	C564.636169,461.830383 565.924805,463.302124 565.917664,465.871613 
	C565.886414,477.179718 566.577820,488.496124 565.493896,500.226074 
z"/>
<path fill="#000000" opacity="1.000000" stroke="none" 
	d="
M430.061584,513.951904 
	C428.597412,516.904724 429.005432,521.027222 425.709015,521.803528 
	C421.046783,522.901489 416.098450,522.635803 411.332031,521.797119 
	C409.547363,521.483093 409.139954,519.459900 408.579773,517.892395 
	C402.532104,500.969177 396.562073,484.017517 390.386505,467.141144 
	C388.865814,462.985474 390.093414,461.556488 394.241547,461.799957 
	C395.901001,461.897308 397.583893,461.939270 399.234009,461.778900 
	C402.419006,461.469391 404.037506,462.887421 405.068176,465.875793 
	C408.703613,476.416504 412.548004,486.885193 416.322998,497.377686 
	C416.821716,498.763916 417.377106,500.129761 418.138458,502.108582 
	C421.432190,498.445831 421.890900,494.053253 423.381592,490.237030 
	C426.528168,482.181732 429.381744,473.998993 431.998596,465.755249 
	C433.308105,461.629730 436.208588,461.753510 439.468231,461.753601 
	C448.798126,461.753906 448.761780,461.701843 445.658966,470.325409 
	C440.474976,484.733063 435.342651,499.159241 430.061584,513.951904 
z"/>
<path fill="#000000" opacity="1.000000" stroke="none" 
	d="
M629.999146,479.906555 
	C628.533020,479.920502 627.531494,479.967682 626.534241,479.922150 
	C620.249146,479.635223 619.813416,479.214966 619.820496,472.877777 
	C619.833801,461.007019 618.380005,461.769684 630.715576,461.781799 
	C641.881775,461.792755 653.049622,461.887604 664.213440,461.724091 
	C668.445618,461.662079 670.250854,463.155243 670.167419,467.535400 
	C669.927368,480.143494 671.765076,480.280853 658.254517,479.856323 
	C653.309570,479.700928 651.943542,481.564789 652.078308,486.248352 
	C652.356323,495.906372 652.172302,505.578369 652.138794,515.244507 
	C652.115479,521.990112 651.818665,522.253296 645.032166,522.247314 
	C637.969421,522.241089 637.826721,522.121155 637.811218,515.481567 
	C637.789001,505.982086 637.797424,496.482544 637.779541,486.983032 
	C637.766296,479.957428 637.757019,479.957458 629.999146,479.906555 
z"/>
<path fill="#000000" opacity="1.000000" stroke="none" 
	d="
M620.271790,514.929077 
	C620.130432,522.165161 620.109314,522.212036 613.618347,522.227417 
	C604.118774,522.249939 594.618042,522.151184 585.119934,522.270996 
	C581.263794,522.319580 579.795776,520.721619 579.815125,516.890137 
	C579.899231,500.224640 579.866943,483.557953 579.753662,466.892517 
	C579.729553,463.346313 580.942749,461.511200 584.673279,461.776611 
	C585.999695,461.870972 587.346008,461.876648 588.670715,461.768616 
	C592.765503,461.434570 594.316650,463.280914 594.260193,467.350281 
	C594.112305,478.014465 594.379883,488.685669 594.146851,499.346771 
	C594.056274,503.488739 595.395325,505.034393 599.563965,504.791168 
	C604.380615,504.510132 609.243652,504.985382 614.054932,504.662079 
	C618.872437,504.338409 620.885193,506.163849 620.290527,510.954193 
	C620.147949,512.103027 620.271118,513.284851 620.271790,514.929077 
z"/>
</svg>