<svg width="77" height="77" viewBox="0 0 77 77" fill="none" xmlns="http://www.w3.org/2000/svg">
<path d="M57.75 25.6667V19.25C57.75 14.1446 55.7219 9.24827 52.1118 5.63819C48.5017 2.02812 43.6054 0 38.5 0C33.3946 0 28.4983 2.02812 24.8882 5.63819C21.2781 9.24827 19.25 14.1446 19.25 19.25V25.6667C16.6973 25.6667 14.2491 26.6807 12.4441 28.4858C10.6391 30.2908 9.625 32.739 9.625 35.2917V57.75C9.6301 62.8539 11.6599 67.7472 15.2688 71.3562C18.8778 74.9651 23.7711 76.9949 28.875 77H48.125C53.2289 76.9949 58.1222 74.9651 61.7312 71.3562C65.3401 67.7472 67.3699 62.8539 67.375 57.75V35.2917C67.375 32.739 66.3609 30.2908 64.5559 28.4858C62.7509 26.6807 60.3027 25.6667 57.75 25.6667ZM25.6667 19.25C25.6667 15.8464 27.0187 12.5822 29.4255 10.1755C31.8322 7.76875 35.0964 6.41667 38.5 6.41667C41.9036 6.41667 45.1678 7.76875 47.5745 10.1755C49.9813 12.5822 51.3333 15.8464 51.3333 19.25V25.6667H25.6667V19.25ZM60.9583 57.75C60.9583 61.1536 59.6063 64.4178 57.1995 66.8245C54.7928 69.2312 51.5286 70.5833 48.125 70.5833H28.875C25.4714 70.5833 22.2072 69.2312 19.8005 66.8245C17.3937 64.4178 16.0417 61.1536 16.0417 57.75V35.2917C16.0417 34.4408 16.3797 33.6247 16.9814 33.023C17.583 32.4214 18.3991 32.0833 19.25 32.0833H57.75C58.6009 32.0833 59.417 32.4214 60.0186 33.023C60.6203 33.6247 60.9583 34.4408 60.9583 35.2917V57.75Z" fill="white"/>
<path d="M38.5 44.9167C37.6491 44.9167 36.8331 45.2547 36.2314 45.8564C35.6297 46.458 35.2917 47.2741 35.2917 48.125V54.5417C35.2917 55.3926 35.6297 56.2086 36.2314 56.8103C36.8331 57.412 37.6491 57.75 38.5 57.75C39.3509 57.75 40.167 57.412 40.7687 56.8103C41.3703 56.2086 41.7084 55.3926 41.7084 54.5417V48.125C41.7084 47.2741 41.3703 46.458 40.7687 45.8564C40.167 45.2547 39.3509 44.9167 38.5 44.9167Z" fill="white"/>
</svg>
